<svg xmlns="http://www.w3.org/2000/svg" xmlns:xlink="http://www.w3.org/1999/xlink" xmlns:lucid="lucid" width="680" height="610.88"><g transform="translate(-540 -489.1164292779579)" lucid:page-tab-id="0_0"><path d="M723.5 825.87c0-3.3 2.68-6 6-6h301c3.32 0 6 2.7 6 6V934c0 3.3-2.68 6-6 6h-301c-3.32 0-6-2.7-6-6z" stroke="#5e5e5e" stroke-width="2" fill="#e5e5e5"/><path d="M760 1046c0-3.3 2.7-6 6-6h228c3.3 0 6 2.7 6 6v28c0 3.3-2.7 6-6 6H766c-3.3 0-6-2.7-6-6z" stroke="#000" stroke-opacity="0" stroke-width="2" fill="#fff" fill-opacity="0"/><use xlink:href="#a" transform="matrix(1,0,0,1,765,1045) translate(96.85185185185185 18.166666666666668)"/><path d="M800 959.74c0-3.3 2.7-6 6-6h148c3.3 0 6 2.7 6 6V994c0 3.3-2.7 6-6 6H806c-3.3 0-6-2.7-6-6z" stroke="#5e5e5e" stroke-width="2" fill="#c1e4f7"/><use xlink:href="#b" transform="matrix(1,0,0,1,812,965.7415598612965) translate(8.370370370370374 10.666666666666668)"/><use xlink:href="#c" transform="matrix(1,0,0,1,812,965.7415598612965) translate(81.77777777777777 10.666666666666668)"/><use xlink:href="#d" transform="matrix(1,0,0,1,812,965.7415598612965) translate(55.074074074074076 26.666666666666668)"/><path d="M880 1039v-19.5" stroke="#5e5e5e" stroke-width="2" fill="none"/><path d="M881 1040h-2v-1.03h2z" fill="#5e5e5e"/><path d="M880 1004.24l4.64 14.26h-9.28z" stroke="#5e5e5e" stroke-width="2" fill="#5e5e5e"/><path d="M739.97 861.44c0-3.3 2.7-6 6-6H854c3.3 0 6 2.7 6 6v28c0 3.32-2.7 6-6 6H745.97c-3.3 0-6-2.68-6-6z" stroke="#5e5e5e" stroke-width="2" fill="#f9d2de"/><use xlink:href="#e" transform="matrix(1,0,0,1,751.9744810285755,867.4417853610212) translate(19.166666666666664 12.666666666666668)"/><path d="M900 857.26c0-3.3 2.7-6 6-6h107.7c3.3 0 6 2.7 6 6v36.36c0 3.32-2.7 6-6 6H906c-3.3 0-6-2.68-6-6z" stroke="#5e5e5e" stroke-width="2" fill="#ffeca9"/><use xlink:href="#f" transform="matrix(1,0,0,1,912,863.2604754577003) translate(4.740740740740748 10.666666666666668)"/><use xlink:href="#c" transform="matrix(1,0,0,1,912,863.2604754577003) translate(45.40740740740741 10.666666666666668)"/><use xlink:href="#g" transform="matrix(1,0,0,1,912,863.2604754577003) translate(18.425925925925924 26.666666666666668)"/><path d="M880 951.74V936c0-3.3-2.7-6-6-6h-68c-3.33 0-6-2.7-6-6v-9.06" stroke="#5e5e5e" stroke-width="2" fill="none"/><path d="M881 952.74h-2v-1.02h2z" fill="#5e5e5e"/><path d="M800 899.68l4.62 14.26h-9.27z" stroke="#5e5e5e" stroke-width="2" fill="#5e5e5e"/><path d="M880 951.74V936c0-3.3 2.7-6 6-6h67.85c3.3 0 6-2.7 6-6v-4.87" stroke="#5e5e5e" stroke-width="2" fill="none"/><path d="M881 952.74h-2v-1.02h2z" fill="#5e5e5e"/><path d="M959.85 903.86l4.63 14.27h-9.27z" stroke="#5e5e5e" stroke-width="2" fill="#5e5e5e"/><path d="M820 766c0-3.3 2.7-6 6-6h108c3.3 0 6 2.7 6 6v16.86c0 3.32-2.7 6-6 6H826c-3.3 0-6-2.68-6-6z" stroke="#5e5e5e" stroke-width="2" fill="#c1e4f7"/><use xlink:href="#h" transform="matrix(1,0,0,1,825,765) translate(33.907407407407405 11.854166666666668)"/><path d="M800 853.44V836c0-3.3 2.67-6 6-6h68c3.3 0 6-2.7 6-6v-15.64" stroke="#5e5e5e" stroke-width="2" fill="none"/><path d="M801 854.44h-2v-1.02h2z" fill="#5e5e5e"/><path d="M880 793.1l4.64 14.26h-9.28z" stroke="#5e5e5e" stroke-width="2" fill="#5e5e5e"/><path d="M959.85 849.26V836c0-3.3-2.7-6-6-6H886c-3.3 0-6-2.7-6-6v-15.64" stroke="#5e5e5e" stroke-width="2" fill="none"/><path d="M960.85 850.26h-2v-1.03h2z" fill="#5e5e5e"/><path d="M880 793.1l4.64 14.26h-9.28z" stroke="#5e5e5e" stroke-width="2" fill="#5e5e5e"/><path d="M820 706c0-3.3 2.7-6 6-6h108c3.3 0 6 2.7 6 6v17c0 3.3-2.7 6-6 6H826c-3.3 0-6-2.7-6-6z" stroke="#5e5e5e" stroke-width="2" fill="#ffdba9"/><use xlink:href="#i" transform="matrix(1,0,0,1,825,705) translate(19.037037037037038 11.854166666666668)"/><path d="M880 758v-9.5" stroke="#5e5e5e" stroke-width="2" fill="none"/><path d="M881 759h-2v-1.03h2z" fill="#5e5e5e"/><path d="M880 733.23l4.64 14.26h-9.28z" stroke="#5e5e5e" stroke-width="2" fill="#5e5e5e"/><path d="M820 646c0-3.3 2.7-6 6-6h108c3.3 0 6 2.7 6 6v17.12c0 3.3-2.7 6-6 6H826c-3.3 0-6-2.7-6-6z" stroke="#5e5e5e" stroke-width="2" fill="#ffeca9"/><use xlink:href="#f" transform="matrix(1,0,0,1,825,645) translate(5.092592592592595 13.166666666666668)"/><use xlink:href="#g" transform="matrix(1,0,0,1,825,645) translate(45.75925925925926 13.166666666666668)"/><path d="M880 698v-9.38" stroke="#5e5e5e" stroke-width="2" fill="none"/><path d="M881 699h-2v-1.03h2z" fill="#5e5e5e"/><path d="M880 673.35l4.64 14.27h-9.28z" stroke="#5e5e5e" stroke-width="2" fill="#5e5e5e"/><path d="M760 515.12c0-3.32 2.7-6 6-6h228c3.3 0 6 2.68 6 6v28c0 3.3-2.7 6-6 6H766c-3.3 0-6-2.7-6-6z" stroke="#000" stroke-opacity="0" stroke-width="2" fill="#fff" fill-opacity="0"/><use xlink:href="#j" transform="matrix(1,0,0,1,765,514.1164292779579) translate(56.94444444444444 18.166666666666668)"/><use xlink:href="#k" transform="matrix(1,0,0,1,765,514.1164292779579) translate(100.64814814814815 18.166666666666668)"/><path d="M820 586c0-3.3 2.7-6 6-6h108c3.3 0 6 2.7 6 6v17.12c0 3.3-2.7 6-6 6H826c-3.3 0-6-2.7-6-6z" stroke="#5e5e5e" stroke-width="2" fill="#c7e8ac"/><use xlink:href="#l" transform="matrix(1,0,0,1,825,585) translate(30.57407407407407 13.166666666666668)"/><path d="M880 638v-9.38" stroke="#5e5e5e" stroke-width="2" fill="none"/><path d="M881 639h-2v-1.03h2z" fill="#5e5e5e"/><path d="M880 613.35l4.64 14.27h-9.28z" stroke="#5e5e5e" stroke-width="2" fill="#5e5e5e"/><path d="M880 578v-10.38" stroke="#5e5e5e" stroke-width="2" fill="none"/><path d="M881 579h-2v-1.03h2z" fill="#5e5e5e"/><path d="M880 552.35l4.64 14.27h-9.28z" stroke="#5e5e5e" stroke-width="2" fill="#5e5e5e"/><path d="M560 906c0-3.3 2.7-6 6-6h128c3.3 0 6 2.7 6 6v28c0 3.3-2.7 6-6 6H566c-3.3 0-6-2.7-6-6z" fill="none"/><path d="M700 940c-5.52 0-10-4.48-10-10s-4.48-10-10-10c5.52 0 10-4.48 10-10s4.48-10 10-10" stroke="#5e5e5e" stroke-width="2" fill="none"/><use xlink:href="#m" transform="matrix(1,0,0,1,565,905) translate(49.77777777777778 17.666666666666668)"/><use xlink:href="#n" transform="matrix(1,0,0,1,565,905) translate(70.48148148148148 17.666666666666668)"/><use xlink:href="#o" transform="matrix(1,0,0,1,565,905) translate(87.48148148148148 17.666666666666668)"/><path d="M1060 906c0-3.3 2.7-6 6-6h128c3.3 0 6 2.7 6 6v28c0 3.3-2.7 6-6 6h-128c-3.3 0-6-2.7-6-6z" fill="none"/><path d="M1060 940c5.52 0 10-4.48 10-10s4.48-10 10-10c-5.52 0-10-4.48-10-10s-4.48-10-10-10" stroke="#5e5e5e" stroke-width="2" fill="none"/><use xlink:href="#m" transform="matrix(1,0,0,1,1095,905) translate(0 17.666666666666668)"/><use xlink:href="#n" transform="matrix(1,0,0,1,1095,905) translate(20.703703703703702 17.666666666666668)"/><use xlink:href="#p" transform="matrix(1,0,0,1,1095,905) translate(37.7037037037037 17.666666666666668)"/><path d="M1060 806c0-3.3 2.7-6 6-6h88c3.3 0 6 2.7 6 6v38.88c0 3.32-2.7 6-6 6h-88c-3.3 0-6-2.68-6-6z" fill="none"/><path d="M1060 850.88c5.52 0 10-4.47 10-10v-5.44c0-5.52 4.48-10 10-10-5.52 0-10-4.48-10-10V810c0-5.52-4.48-10-10-10" stroke="#5e5e5e" stroke-width="2" fill="none"/><use xlink:href="#m" transform="matrix(1,0,0,1,1095.0000000000002,805) translate(0 23.166666666666668)"/><use xlink:href="#n" transform="matrix(1,0,0,1,1095.0000000000002,805) translate(20.703703703703702 23.166666666666668)"/><use xlink:href="#q" transform="matrix(1,0,0,1,1095.0000000000002,805) translate(37.7037037037037 23.166666666666668)"/><path d="M1060 1006c0-3.3 2.7-6 6-6h128c3.3 0 6 2.7 6 6v28c0 3.3-2.7 6-6 6h-128c-3.3 0-6-2.7-6-6z" fill="none"/><path d="M1060 1040c5.52 0 10-4.48 10-10s4.48-10 10-10c-5.52 0-10-4.48-10-10s-4.48-10-10-10" stroke="#5e5e5e" stroke-width="2" fill="none"/><use xlink:href="#m" transform="matrix(1,0,0,1,1095,1005) translate(0 17.666666666666668)"/><use xlink:href="#n" transform="matrix(1,0,0,1,1095,1005) translate(20.703703703703702 17.666666666666668)"/><use xlink:href="#r" transform="matrix(1,0,0,1,1095,1005) translate(37.7037037037037 17.666666666666668)"/><use xlink:href="#s" transform="matrix(1,0,0,1,1095,1005) translate(49.25925925925926 17.666666666666668)"/><use xlink:href="#p" transform="matrix(1,0,0,1,1095,1005) translate(60.74074074074074 17.666666666666668)"/><path d="M1060 726c0-3.3 2.7-6 6-6h128c3.3 0 6 2.7 6 6v28c0 3.3-2.7 6-6 6h-128c-3.3 0-6-2.7-6-6z" fill="none"/><path d="M1060 760c5.52 0 10-4.48 10-10s4.48-10 10-10c-5.52 0-10-4.48-10-10s-4.48-10-10-10" stroke="#5e5e5e" stroke-width="2" fill="none"/><g><use xlink:href="#m" transform="matrix(1,0,0,1,1095,725) translate(0 17.666666666666668)"/><use xlink:href="#n" transform="matrix(1,0,0,1,1095,725) translate(20.703703703703702 17.666666666666668)"/><use xlink:href="#t" transform="matrix(1,0,0,1,1095,725) translate(37.7037037037037 17.666666666666668)"/><use xlink:href="#s" transform="matrix(1,0,0,1,1095,725) translate(58.407407407407405 17.666666666666668)"/><use xlink:href="#q" transform="matrix(1,0,0,1,1095,725) translate(69.88888888888889 17.666666666666668)"/></g><path d="M1060 606c0-3.3 2.7-6 6-6h88c3.3 0 6 2.7 6 6v28c0 3.3-2.7 6-6 6h-88c-3.3 0-6-2.7-6-6z" fill="none"/><path d="M1060 640c5.52 0 10-4.48 10-10s4.48-10 10-10c-5.52 0-10-4.48-10-10s-4.48-10-10-10" stroke="#5e5e5e" stroke-width="2" fill="none"/><g><use xlink:href="#m" transform="matrix(1,0,0,1,1095,605) translate(0 17.666666666666668)"/><use xlink:href="#n" transform="matrix(1,0,0,1,1095,605) translate(20.703703703703702 17.666666666666668)"/><use xlink:href="#u" transform="matrix(1,0,0,1,1095,605) translate(37.7037037037037 17.666666666666668)"/></g><path d="M1060 546c0-3.3 2.7-6 6-6h88c3.3 0 6 2.7 6 6v28c0 3.3-2.7 6-6 6h-88c-3.3 0-6-2.7-6-6z" fill="none"/><path d="M1060 580c5.52 0 10-4.48 10-10s4.48-10 10-10c-5.52 0-10-4.48-10-10s-4.48-10-10-10" stroke="#5e5e5e" stroke-width="2" fill="none"/><g><use xlink:href="#m" transform="matrix(1,0,0,1,1095,545) translate(0 17.666666666666668)"/><use xlink:href="#n" transform="matrix(1,0,0,1,1095,545) translate(20.703703703703702 17.666666666666668)"/><use xlink:href="#u" transform="matrix(1,0,0,1,1095,545) translate(37.7037037037037 17.666666666666668)"/></g><path d="M560 806c0-3.3 2.7-6 6-6h128c3.3 0 6 2.7 6 6v38.88c0 3.32-2.7 6-6 6H566c-3.3 0-6-2.68-6-6z" fill="none"/><path d="M700 850.88c-5.52 0-10-4.47-10-10v-5.44c0-5.52-4.48-10-10-10 5.52 0 10-4.48 10-10V810c0-5.52 4.48-10 10-10" stroke="#5e5e5e" stroke-width="2" fill="none"/><g><use xlink:href="#m" transform="matrix(1,0,0,1,565,805) translate(40.888888888888886 23.166666666666668)"/><use xlink:href="#n" transform="matrix(1,0,0,1,565,805) translate(61.59259259259259 23.166666666666668)"/><use xlink:href="#v" transform="matrix(1,0,0,1,565,805) translate(78.59259259259258 23.166666666666668)"/></g><path d="M1060 666c0-3.3 2.7-6 6-6h128c3.3 0 6 2.7 6 6v28c0 3.3-2.7 6-6 6h-128c-3.3 0-6-2.7-6-6z" fill="none"/><path d="M1060 700c5.52 0 10-4.48 10-10s4.48-10 10-10c-5.52 0-10-4.48-10-10s-4.48-10-10-10" stroke="#5e5e5e" stroke-width="2" fill="none"/><g><use xlink:href="#m" transform="matrix(1,0,0,1,1095,665) translate(0 17.666666666666668)"/><use xlink:href="#n" transform="matrix(1,0,0,1,1095,665) translate(20.703703703703702 17.666666666666668)"/><use xlink:href="#t" transform="matrix(1,0,0,1,1095,665) translate(37.7037037037037 17.666666666666668)"/><use xlink:href="#s" transform="matrix(1,0,0,1,1095,665) translate(58.407407407407405 17.666666666666668)"/><use xlink:href="#q" transform="matrix(1,0,0,1,1095,665) translate(69.88888888888889 17.666666666666668)"/></g><defs><path fill="#333" d="M33 0v-248h34V0H33" id="w"/><path fill="#333" d="M117-194c89-4 53 116 60 194h-32v-121c0-31-8-49-39-48C34-167 62-67 57 0H25l-1-190h30c1 10-1 24 2 32 11-22 29-35 61-36" id="x"/><path fill="#333" d="M115-194c55 1 70 41 70 98S169 2 115 4C84 4 66-9 55-30l1 105H24l-1-265h31l2 30c10-21 28-34 59-34zm-8 174c40 0 45-34 45-75s-6-73-45-74c-42 0-51 32-51 76 0 43 10 73 51 73" id="y"/><path fill="#333" d="M84 4C-5 8 30-112 23-190h32v120c0 31 7 50 39 49 72-2 45-101 50-169h31l1 190h-30c-1-10 1-25-2-33-11 22-28 36-60 37" id="z"/><path fill="#333" d="M59-47c-2 24 18 29 38 22v24C64 9 27 4 27-40v-127H5v-23h24l9-43h21v43h35v23H59v120" id="A"/><path fill="#333" d="M135-143c-3-34-86-38-87 0 15 53 115 12 119 90S17 21 10-45l28-5c4 36 97 45 98 0-10-56-113-15-118-90-4-57 82-63 122-42 12 7 21 19 24 35" id="B"/><g id="a"><use transform="matrix(0.03703703703703704,0,0,0.03703703703703704,0,0)" xlink:href="#w"/><use transform="matrix(0.03703703703703704,0,0,0.03703703703703704,3.703703703703704,0)" xlink:href="#x"/><use transform="matrix(0.03703703703703704,0,0,0.03703703703703704,11.111111111111112,0)" xlink:href="#y"/><use transform="matrix(0.03703703703703704,0,0,0.03703703703703704,18.51851851851852,0)" xlink:href="#z"/><use transform="matrix(0.03703703703703704,0,0,0.03703703703703704,25.92592592592593,0)" xlink:href="#A"/><use transform="matrix(0.03703703703703704,0,0,0.03703703703703704,29.629629629629633,0)" xlink:href="#B"/></g><path fill="#333" d="M127-220V0H93v-220H8v-28h204v28h-85" id="C"/><path fill="#333" d="M24-231v-30h32v30H24zM24 0v-190h32V0H24" id="D"/><path fill="#333" d="M210-169c-67 3-38 105-44 169h-31v-121c0-29-5-50-35-48C34-165 62-65 56 0H25l-1-190h30c1 10-1 24 2 32 10-44 99-50 107 0 11-21 27-35 58-36 85-2 47 119 55 194h-31v-121c0-29-5-49-35-48" id="E"/><path fill="#333" d="M100-194c63 0 86 42 84 106H49c0 40 14 67 53 68 26 1 43-12 49-29l28 8c-11 28-37 45-77 45C44 4 14-33 15-96c1-61 26-98 85-98zm52 81c6-60-76-77-97-28-3 7-6 17-6 28h103" id="F"/><path fill="#333" d="M0 4l72-265h28L28 4H0" id="G"/><path fill="#333" d="M30 0v-248h33v221h125V0H30" id="H"/><path fill="#333" d="M141-36C126-15 110 5 73 4 37 3 15-17 15-53c-1-64 63-63 125-63 3-35-9-54-41-54-24 1-41 7-42 31l-33-3c5-37 33-52 76-52 45 0 72 20 72 64v82c-1 20 7 32 28 27v20c-31 9-61-2-59-35zM48-53c0 20 12 33 32 33 41-3 63-29 60-74-43 2-92-5-92 41" id="I"/><path fill="#333" d="M114-163C36-179 61-72 57 0H25l-1-190h30c1 12-1 29 2 39 6-27 23-49 58-41v29" id="J"/><g id="b"><use transform="matrix(0.03703703703703704,0,0,0.03703703703703704,0,0)" xlink:href="#C"/><use transform="matrix(0.03703703703703704,0,0,0.03703703703703704,7.629629629629631,0)" xlink:href="#D"/><use transform="matrix(0.03703703703703704,0,0,0.03703703703703704,10.555555555555557,0)" xlink:href="#E"/><use transform="matrix(0.03703703703703704,0,0,0.03703703703703704,21.629629629629633,0)" xlink:href="#F"/><use transform="matrix(0.03703703703703704,0,0,0.03703703703703704,29.03703703703704,0)" xlink:href="#G"/><use transform="matrix(0.03703703703703704,0,0,0.03703703703703704,32.74074074074075,0)" xlink:href="#H"/><use transform="matrix(0.03703703703703704,0,0,0.03703703703703704,40.14814814814815,0)" xlink:href="#D"/><use transform="matrix(0.03703703703703704,0,0,0.03703703703703704,43.07407407407408,0)" xlink:href="#x"/><use transform="matrix(0.03703703703703704,0,0,0.03703703703703704,50.48148148148148,0)" xlink:href="#F"/><use transform="matrix(0.03703703703703704,0,0,0.03703703703703704,57.888888888888886,0)" xlink:href="#I"/><use transform="matrix(0.03703703703703704,0,0,0.03703703703703704,65.29629629629629,0)" xlink:href="#J"/></g><path fill="#333" d="M63-220v92h138v28H63V0H30v-248h175v28H63" id="K"/><g id="c"><use transform="matrix(0.03703703703703704,0,0,0.03703703703703704,0,0)" xlink:href="#K"/><use transform="matrix(0.03703703703703704,0,0,0.03703703703703704,8.111111111111112,0)" xlink:href="#F"/><use transform="matrix(0.03703703703703704,0,0,0.03703703703703704,15.51851851851852,0)" xlink:href="#I"/><use transform="matrix(0.03703703703703704,0,0,0.03703703703703704,22.925925925925927,0)" xlink:href="#A"/><use transform="matrix(0.03703703703703704,0,0,0.03703703703703704,26.629629629629633,0)" xlink:href="#z"/><use transform="matrix(0.03703703703703704,0,0,0.03703703703703704,34.03703703703704,0)" xlink:href="#J"/><use transform="matrix(0.03703703703703704,0,0,0.03703703703703704,38.44444444444444,0)" xlink:href="#F"/></g><path fill="#333" d="M185-189c-5-48-123-54-124 2 14 75 158 14 163 119 3 78-121 87-175 55-17-10-28-26-33-46l33-7c5 56 141 63 141-1 0-78-155-14-162-118-5-82 145-84 179-34 5 7 8 16 11 25" id="L"/><path fill="#333" d="M24 0v-261h32V0H24" id="M"/><g id="d"><use transform="matrix(0.03703703703703704,0,0,0.03703703703703704,0,0)" xlink:href="#L"/><use transform="matrix(0.03703703703703704,0,0,0.03703703703703704,8.88888888888889,0)" xlink:href="#y"/><use transform="matrix(0.03703703703703704,0,0,0.03703703703703704,16.296296296296298,0)" xlink:href="#M"/><use transform="matrix(0.03703703703703704,0,0,0.03703703703703704,19.222222222222225,0)" xlink:href="#D"/><use transform="matrix(0.03703703703703704,0,0,0.03703703703703704,22.148148148148152,0)" xlink:href="#A"/></g><path fill="#333" d="M101-251c82-7 93 87 43 132L82-64C71-53 59-42 53-27h129V0H18c2-99 128-94 128-182 0-28-16-43-45-43s-46 15-49 41l-32-3c6-41 34-60 81-64" id="N"/><path fill="#333" d="M137 0h-34L2-248h35l83 218 83-218h36" id="O"/><path fill="#333" d="M96-169c-40 0-48 33-48 73s9 75 48 75c24 0 41-14 43-38l32 2c-6 37-31 61-74 61-59 0-76-41-82-99-10-93 101-131 147-64 4 7 5 14 7 22l-32 3c-4-21-16-35-41-35" id="P"/><g id="e"><use transform="matrix(0.03703703703703704,0,0,0.03703703703703704,0,0)" xlink:href="#C"/><use transform="matrix(0.03703703703703704,0,0,0.03703703703703704,7.629629629629631,0)" xlink:href="#D"/><use transform="matrix(0.03703703703703704,0,0,0.03703703703703704,10.555555555555557,0)" xlink:href="#E"/><use transform="matrix(0.03703703703703704,0,0,0.03703703703703704,21.629629629629633,0)" xlink:href="#F"/><use transform="matrix(0.03703703703703704,0,0,0.03703703703703704,29.03703703703704,0)" xlink:href="#N"/><use transform="matrix(0.03703703703703704,0,0,0.03703703703703704,36.44444444444445,0)" xlink:href="#O"/><use transform="matrix(0.03703703703703704,0,0,0.03703703703703704,44.592592592592595,0)" xlink:href="#F"/><use transform="matrix(0.03703703703703704,0,0,0.03703703703703704,52,0)" xlink:href="#P"/></g><g id="f"><use transform="matrix(0.03703703703703704,0,0,0.03703703703703704,0,0)" xlink:href="#H"/><use transform="matrix(0.03703703703703704,0,0,0.03703703703703704,7.407407407407408,0)" xlink:href="#D"/><use transform="matrix(0.03703703703703704,0,0,0.03703703703703704,10.333333333333334,0)" xlink:href="#x"/><use transform="matrix(0.03703703703703704,0,0,0.03703703703703704,17.740740740740744,0)" xlink:href="#F"/><use transform="matrix(0.03703703703703704,0,0,0.03703703703703704,25.148148148148152,0)" xlink:href="#I"/><use transform="matrix(0.03703703703703704,0,0,0.03703703703703704,32.55555555555556,0)" xlink:href="#J"/></g><path fill="#333" d="M30-248c87 1 191-15 191 75 0 78-77 80-158 76V0H30v-248zm33 125c57 0 124 11 124-50 0-59-68-47-124-48v98" id="Q"/><path fill="#333" d="M100-194c62-1 85 37 85 99 1 63-27 99-86 99S16-35 15-95c0-66 28-99 85-99zM99-20c44 1 53-31 53-75 0-43-8-75-51-75s-53 32-53 75 10 74 51 75" id="R"/><path fill="#333" d="M24-231v-30h32v30H24zM-9 49c24 4 33-6 33-30v-209h32V24c2 40-23 58-65 49V49" id="S"/><g id="g"><use transform="matrix(0.03703703703703704,0,0,0.03703703703703704,0,0)" xlink:href="#Q"/><use transform="matrix(0.03703703703703704,0,0,0.03703703703703704,8.88888888888889,0)" xlink:href="#J"/><use transform="matrix(0.03703703703703704,0,0,0.03703703703703704,13.296296296296298,0)" xlink:href="#R"/><use transform="matrix(0.03703703703703704,0,0,0.03703703703703704,20.703703703703706,0)" xlink:href="#S"/><use transform="matrix(0.03703703703703704,0,0,0.03703703703703704,23.629629629629633,0)" xlink:href="#F"/><use transform="matrix(0.03703703703703704,0,0,0.03703703703703704,31.03703703703704,0)" xlink:href="#P"/><use transform="matrix(0.03703703703703704,0,0,0.03703703703703704,37.70370370370371,0)" xlink:href="#A"/><use transform="matrix(0.03703703703703704,0,0,0.03703703703703704,41.40740740740741,0)" xlink:href="#D"/><use transform="matrix(0.03703703703703704,0,0,0.03703703703703704,44.333333333333336,0)" xlink:href="#R"/><use transform="matrix(0.03703703703703704,0,0,0.03703703703703704,51.74074074074075,0)" xlink:href="#x"/></g><path fill="#333" d="M212-179c-10-28-35-45-73-45-59 0-87 40-87 99 0 60 29 101 89 101 43 0 62-24 78-52l27 14C228-24 195 4 139 4 59 4 22-46 18-125c-6-104 99-153 187-111 19 9 31 26 39 46" id="T"/><g id="h"><use transform="matrix(0.03703703703703704,0,0,0.03703703703703704,0,0)" xlink:href="#T"/><use transform="matrix(0.03703703703703704,0,0,0.03703703703703704,9.592592592592593,0)" xlink:href="#R"/><use transform="matrix(0.03703703703703704,0,0,0.03703703703703704,17,0)" xlink:href="#x"/><use transform="matrix(0.03703703703703704,0,0,0.03703703703703704,24.407407407407405,0)" xlink:href="#P"/><use transform="matrix(0.03703703703703704,0,0,0.03703703703703704,31.07407407407408,0)" xlink:href="#I"/><use transform="matrix(0.03703703703703704,0,0,0.03703703703703704,38.48148148148148,0)" xlink:href="#A"/></g><path fill="#333" d="M101-234c-31-9-42 10-38 44h38v23H63V0H32v-167H5v-23h27c-7-52 17-82 69-68v24" id="U"/><g id="i"><use transform="matrix(0.03703703703703704,0,0,0.03703703703703704,0,0)" xlink:href="#C"/><use transform="matrix(0.03703703703703704,0,0,0.03703703703703704,7.629629629629631,0)" xlink:href="#J"/><use transform="matrix(0.03703703703703704,0,0,0.03703703703703704,12.037037037037038,0)" xlink:href="#I"/><use transform="matrix(0.03703703703703704,0,0,0.03703703703703704,19.444444444444446,0)" xlink:href="#x"/><use transform="matrix(0.03703703703703704,0,0,0.03703703703703704,26.851851851851855,0)" xlink:href="#B"/><use transform="matrix(0.03703703703703704,0,0,0.03703703703703704,33.51851851851852,0)" xlink:href="#U"/><use transform="matrix(0.03703703703703704,0,0,0.03703703703703704,37.22222222222222,0)" xlink:href="#R"/><use transform="matrix(0.03703703703703704,0,0,0.03703703703703704,44.62962962962963,0)" xlink:href="#J"/><use transform="matrix(0.03703703703703704,0,0,0.03703703703703704,49.03703703703704,0)" xlink:href="#E"/><use transform="matrix(0.03703703703703704,0,0,0.03703703703703704,60.11111111111111,0)" xlink:href="#F"/><use transform="matrix(0.03703703703703704,0,0,0.03703703703703704,67.51851851851852,0)" xlink:href="#J"/></g><path fill="#333" d="M140-251c81 0 123 46 123 126C263-46 219 4 140 4 59 4 17-45 17-125s42-126 123-126zm0 227c63 0 89-41 89-101s-29-99-89-99c-61 0-89 39-89 99S79-25 140-24" id="V"/><g id="j"><use transform="matrix(0.03703703703703704,0,0,0.03703703703703704,0,0)" xlink:href="#V"/><use transform="matrix(0.03703703703703704,0,0,0.03703703703703704,10.370370370370372,0)" xlink:href="#z"/><use transform="matrix(0.03703703703703704,0,0,0.03703703703703704,17.77777777777778,0)" xlink:href="#A"/><use transform="matrix(0.03703703703703704,0,0,0.03703703703703704,21.48148148148148,0)" xlink:href="#y"/><use transform="matrix(0.03703703703703704,0,0,0.03703703703703704,28.88888888888889,0)" xlink:href="#z"/><use transform="matrix(0.03703703703703704,0,0,0.03703703703703704,36.2962962962963,0)" xlink:href="#A"/></g><path fill="#333" d="M115-194c53 0 69 39 70 98 0 66-23 100-70 100C84 3 66-7 56-30L54 0H23l1-261h32v101c10-23 28-34 59-34zm-8 174c40 0 45-34 45-75 0-40-5-75-45-74-42 0-51 32-51 76 0 43 10 73 51 73" id="W"/><g id="k"><use transform="matrix(0.03703703703703704,0,0,0.03703703703703704,0,0)" xlink:href="#Q"/><use transform="matrix(0.03703703703703704,0,0,0.03703703703703704,8.88888888888889,0)" xlink:href="#J"/><use transform="matrix(0.03703703703703704,0,0,0.03703703703703704,13.296296296296298,0)" xlink:href="#R"/><use transform="matrix(0.03703703703703704,0,0,0.03703703703703704,20.703703703703706,0)" xlink:href="#W"/><use transform="matrix(0.03703703703703704,0,0,0.03703703703703704,28.111111111111114,0)" xlink:href="#I"/><use transform="matrix(0.03703703703703704,0,0,0.03703703703703704,35.51851851851852,0)" xlink:href="#W"/><use transform="matrix(0.03703703703703704,0,0,0.03703703703703704,42.925925925925924,0)" xlink:href="#D"/><use transform="matrix(0.03703703703703704,0,0,0.03703703703703704,45.85185185185185,0)" xlink:href="#M"/><use transform="matrix(0.03703703703703704,0,0,0.03703703703703704,48.777777777777764,0)" xlink:href="#D"/><use transform="matrix(0.03703703703703704,0,0,0.03703703703703704,51.703703703703695,0)" xlink:href="#A"/><use transform="matrix(0.03703703703703704,0,0,0.03703703703703704,55.4074074074074,0)" xlink:href="#D"/><use transform="matrix(0.03703703703703704,0,0,0.03703703703703704,58.33333333333332,0)" xlink:href="#F"/><use transform="matrix(0.03703703703703704,0,0,0.03703703703703704,65.74074074074073,0)" xlink:href="#B"/></g><path fill="#333" d="M141 0L90-78 38 0H4l68-98-65-92h35l48 74 47-74h35l-64 92 68 98h-35" id="X"/><g id="l"><use transform="matrix(0.03703703703703704,0,0,0.03703703703703704,0,0)" xlink:href="#L"/><use transform="matrix(0.03703703703703704,0,0,0.03703703703703704,8.88888888888889,0)" xlink:href="#R"/><use transform="matrix(0.03703703703703704,0,0,0.03703703703703704,16.296296296296298,0)" xlink:href="#U"/><use transform="matrix(0.03703703703703704,0,0,0.03703703703703704,20,0)" xlink:href="#A"/><use transform="matrix(0.03703703703703704,0,0,0.03703703703703704,23.703703703703702,0)" xlink:href="#E"/><use transform="matrix(0.03703703703703704,0,0,0.03703703703703704,34.77777777777778,0)" xlink:href="#I"/><use transform="matrix(0.03703703703703704,0,0,0.03703703703703704,42.18518518518519,0)" xlink:href="#X"/></g><path fill="#333" d="M87 75C49 33 22-17 22-94c0-76 28-126 65-167h31c-38 41-64 92-64 168S80 34 118 75H87" id="Y"/><path fill="#333" d="M68-38c1 34 0 65-14 84H32c9-13 17-26 17-46H33v-38h35" id="Z"/><g id="m"><use transform="matrix(0.03703703703703704,0,0,0.03703703703703704,0,0)" xlink:href="#Y"/><use transform="matrix(0.03703703703703704,0,0,0.03703703703703704,4.407407407407408,0)" xlink:href="#L"/><use transform="matrix(0.03703703703703704,0,0,0.03703703703703704,13.296296296296298,0)" xlink:href="#Z"/></g><path fill="#333" d="M190 0L58-211 59 0H30v-248h39L202-35l-2-213h31V0h-41" id="aa"/><g id="n"><use transform="matrix(0.03703703703703704,0,0,0.03703703703703704,0,0)" xlink:href="#aa"/><use transform="matrix(0.03703703703703704,0,0,0.03703703703703704,9.592592592592593,0)" xlink:href="#Z"/></g><path fill="#333" d="M33-261c38 41 65 92 65 168S71 34 33 75H2C39 34 66-17 66-93S39-220 2-261h31" id="ab"/><g id="o"><use transform="matrix(0.03703703703703704,0,0,0.03703703703703704,0,0)" xlink:href="#C"/><use transform="matrix(0.03703703703703704,0,0,0.03703703703703704,8.111111111111112,0)" xlink:href="#ab"/></g><g id="p"><use transform="matrix(0.03703703703703704,0,0,0.03703703703703704,0,0)" xlink:href="#H"/><use transform="matrix(0.03703703703703704,0,0,0.03703703703703704,7.407407407407408,0)" xlink:href="#ab"/></g><path fill="#333" d="M30 0v-248h187v28H63v79h144v27H63v87h162V0H30" id="ac"/><g id="q"><use transform="matrix(0.03703703703703704,0,0,0.03703703703703704,0,0)" xlink:href="#H"/><use transform="matrix(0.03703703703703704,0,0,0.03703703703703704,7.407407407407408,0)" xlink:href="#ac"/><use transform="matrix(0.03703703703703704,0,0,0.03703703703703704,16.296296296296298,0)" xlink:href="#ab"/></g><use transform="matrix(0.03703703703703704,0,0,0.03703703703703704,0,0)" xlink:href="#C" id="r"/><path fill="#333" d="M118-107v75H92v-75H18v-26h74v-75h26v75h74v26h-74" id="ad"/><use transform="matrix(0.03703703703703704,0,0,0.03703703703703704,0,0)" xlink:href="#ad" id="s"/><g id="t"><use transform="matrix(0.03703703703703704,0,0,0.03703703703703704,0,0)" xlink:href="#C"/><use transform="matrix(0.03703703703703704,0,0,0.03703703703703704,8.111111111111112,0)" xlink:href="#ac"/></g><g id="u"><use transform="matrix(0.03703703703703704,0,0,0.03703703703703704,0,0)" xlink:href="#Q"/><use transform="matrix(0.03703703703703704,0,0,0.03703703703703704,8.88888888888889,0)" xlink:href="#ab"/></g><g id="v"><use transform="matrix(0.03703703703703704,0,0,0.03703703703703704,0,0)" xlink:href="#C"/><use transform="matrix(0.03703703703703704,0,0,0.03703703703703704,8.111111111111112,0)" xlink:href="#ac"/><use transform="matrix(0.03703703703703704,0,0,0.03703703703703704,17,0)" xlink:href="#ab"/></g></defs></g></svg>